# xmcd CD database file
#
# Track frame offsets:
#	150
#	33235
#	52599
#	72547
#	90139
#	120339
#	153444
#	175309
#	203097
#
# Disc length: 2984 seconds
#
# Revision: 0
# Processed by: cddbd v1.4PL0 Copyright (c) Steve Scherf et al.
# Submitted via: CDex 1.51
#
DISCID=640ba609
DTITLE=Ciccon'dela - Uno
DYEAR=2002
DGENRE=Jazz
TTITLE0=A bunch of pictures
TTITLE1=Kabala
TTITLE2=Watercolours
TTITLE3=Time zones
TTITLE4=The last frontier
TTITLE5=Light years
TTITLE6=Looking inside
TTITLE7=Night in Paris
TTITLE8=Travel story
EXTD=YEAR: 2002
EXTT0=
EXTT1=
EXTT2=
EXTT3=
EXTT4=
EXTT5=
EXTT6=
EXTT7=
EXTT8=
PLAYORDER=
